<?xml version="1.0" encoding="UTF-8"?>
<svg id="Layer_1" data-name="Layer 1" xmlns="http://www.w3.org/2000/svg" viewBox="0 0 62.52 57.15">
  <path d="M20.28,2.57V.43c0-.09.08-.09.34-.17h.09v-.26h-.86v.09s-.34.77-.6,1.28c-.08.17-.17.43-.26.6-.08.09-.08.26-.17.34-.08-.26-.26-.6-.43-.94-.26-.51-.6-1.28-.6-1.28v-.09h-.94v.26h.08c.17,0,.26.09.34.09s.09.09.17.26v1.8c0,.17,0,.34-.34.34h-.08v.34h.51c.26,0,.51,0,.6.09h.08v-.34h-.08q-.34-.09-.43-.26v-1.28c.09.09.09.17.17.34l.09.26c0,.09.08.17.08.26.17.26.34.6.51,1.11v.09h.26v-.09c.09-.26.26-.77.51-1.11l.09-.17c.09-.17.09-.26.17-.43.09-.09.09-.17.17-.34v1.54c0,.09-.08.17-.34.17h-.09v.26h.09s.34-.09.51-.09c.26,0,.51,0,.77.09h.08v-.34h-.08c-.34-.09-.43-.17-.43-.26ZM25.58,0h-.77v.34h.09c.26,0,.34.09.34.17.09.09.09.34.09.51v.77c0,.86-.51.94-.86.94s-.86-.09-.86-.86V.68c0-.26.09-.26.43-.34h.09V.09h-1.63v.26h.09c.34.09.43.09.43.43v1.28c0,.77.51,1.2,1.37,1.2.6,0,1.28-.34,1.28-1.28v-.86c0-.17,0-.43.08-.51,0-.09.09-.09.34-.09h.08V.17h-.08c-.26-.17-.43-.17-.51-.17ZM29.26,1.28c-.43-.17-.51-.34-.51-.51,0-.26.17-.43.51-.43.26,0,.43.17.43.43v.09h.26V.17h-.09c-.26-.09-.43-.17-.68-.17-.6,0-1.03.34-1.03.86,0,.43.26.68.85.94.43.17.51.26.51.51s-.26.51-.51.51c-.34,0-.51-.17-.6-.51v-.09h-.26v.77h.08c.26.09.6.17.86.17.68,0,1.11-.43,1.11-.94-.08-.6-.51-.77-.94-.94ZM34.39,2.22c-.09.26-.09.34-.17.34s-.34.09-.6.09c-.17,0-.26,0-.34-.09,0,0-.09-.17-.09-.51v-.43h.26c.17,0,.34,0,.34.09.08,0,.08.17.17.26v.17l.26-.09v-.09c-.08-.17-.08-.34-.08-.51v-.43h-.17v.09c-.09.17-.09.26-.17.26s-.17.09-.34.09h-.26v-.94h.34c.26,0,.34,0,.43.09.08.09.17.17.17.34v.09h.26V.17h-2.31v.26h.17c.17,0,.34.09.34.17v2.22c0,.09-.17.09-.34.09h-.09v.26h2.4v-.09q0-.17.08-.34v-.43l-.26-.09ZM39.7,0h-.69v.34h.09c.26,0,.34.09.34.17.09.09.09.34.09.51v.77c0,.86-.51.94-.86.94s-.86-.09-.86-.86V.68c0-.26.08-.26.43-.34h.09V.09h-1.63v.26h.09c.34.09.43.09.43.43v1.28c0,.77.51,1.2,1.37,1.2.6,0,1.28-.34,1.28-1.28v-.86c0-.17,0-.43.09-.51,0-.09.08-.09.34-.09h.08V.17h-.08c-.34-.17-.43-.17-.6-.17ZM45.94,2.74c-.26-.09-.34-.09-.34-.17V.43c0-.09.09-.09.34-.17h.09v-.26h-.94v.09s-.34.77-.6,1.28c-.09.17-.17.43-.26.6-.08.09-.08.17-.17.26-.09-.26-.26-.6-.43-.94l-.6-1.2v-.09h-.94v.26h.09c.17,0,.26.09.34.09s.09.09.17.26v1.88c0,.17,0,.34-.34.34h-.08v.34h.51c.26,0,.51,0,.6.09h.09v-.34h-.09q-.34-.09-.43-.26v-1.28c.09.09.09.17.17.34l.09.26c0,.09.08.17.08.26.17.26.34.6.51,1.11v.09h.26v-.09c.09-.26.34-.77.51-1.11l.09-.17c.09-.17.09-.26.17-.43.09-.09.09-.17.17-.34v1.54c0,.09-.08.17-.34.17h-.09v.26h.09s.34-.09.51-.09c.26,0,.51,0,.77.09h.09v-.34l-.09-.17ZM1.28,10.27c.09.26.09.68.09,1.8,0,1.28,0,1.8-.09,2.05-.09.26-.17.43-.86.51,0,0-.09,0-.09.09v.34c.43-.09.86-.09,1.45-.09.51,0,1.11,0,1.54.09v-.34s0-.09-.09-.09c-.6-.09-.77-.17-.86-.34-.09-.17-.17-.86-.17-2.74v-1.71h.26c.77,0,1.2.51,1.2,1.2s-.43,1.2-1.11,1.28c0,0-.09,0-.09.09v.26s0,.09.09.09c.86,0,1.37-.09,1.71-.43.34-.26.6-.68.6-1.2,0-1.03-.86-1.63-2.14-1.63H.09s-.09,0-.09.09v.26s0,.09.09.09c.94-.09,1.11,0,1.2.34ZM12.66,15.14h.94c.09-.17.09-.26.17-.51.17-.43.34-.77.43-.94v-.09h-.51c-.26.43-.51.68-.77.86-.26.17-.51.17-.77.17-.51,0-.68-.09-.86-.17-.26-.17-.34-.34-.34-1.2v-1.54c0-1.2,0-1.45.17-1.63.09-.09.34-.26.68-.26,0,0,.09,0,.09-.09v-.34h-1.45c-.68,0-1.03,0-1.28-.09h-.17v.34s0,.09.09.09c.43.09.6.17.77.26.09.17.17.34.17.68v2.31c0,.77,0,1.2-.09,1.37-.09.09-.17.17-.68.26,0,0-.09,0-.09.09v.26s0,.09.09.09h.09c.17,0,.6-.09,1.03-.09h1.2c.26.09.68.17,1.11.17ZM20.96,14.72l-.08.34h2.82v-.34s0-.09-.09-.09c-.34,0-.51-.09-.6-.26-.17-.17-.17-.34-.68-1.45-.17-.34-.34-.77-.51-1.37-.51-1.28-.94-2.57-.94-2.57h-.17c-.17.34-.43.77-.77.77v.09l.08.17c-.08.26-.94,2.48-1.37,3.76-.26.68-.43.86-1.03.94,0,0-.09,0-.09.09v.34h2.31v-.34s0-.09-.09-.09c-.6,0-.85-.17-.85-.43,0-.17.34-1.2.43-1.37h1.71c.08.17.17.34.17.51.17.43.26.68.26.86.34.17.17.34-.51.43ZM21.13,12.32h-1.2l.6-1.63.6,1.63ZM29.26,14.37c-.08-.17-.08-.26-.08-1.54v-1.97c.26.34,1.2,1.37,1.88,2.05l.17.26c1.03,1.11,1.71,1.88,1.88,2.22l.26-.17v-.09s.08-3.17.08-3.34c0-1.03,0-1.37.09-1.54.08-.17.34-.34.86-.34,0,0,.09,0,.09-.09v-.43h-2.48v.43c.51.09.68.17.77.34.08.17.08.34.08,1.54v1.54c-.17-.26-.51-.6-.86-.94l-.26-.34c-1.71-1.8-2.14-2.4-2.22-2.57h-2.22s-.08,0-.08.09v.34s0,.09.08.09c.51,0,.77.17,1.11.43v2.82c0,1.03,0,1.2-.09,1.37-.09.17-.26.26-.86.34,0,0-.09,0-.09.09v.34c.43,0,.86-.09,1.37-.09.6,0,.94,0,1.28.09v-.34s0-.09-.08-.09c-.26-.26-.6-.34-.68-.51ZM39.1,10.18h1.54v2.99c0,.43,0,1.03-.17,1.2-.09.17-.26.17-.51.26h-.17v.43c.34,0,.94-.09,1.37-.09s.94,0,1.46.09v-.34s0-.09-.09-.09c-.51-.09-.68-.17-.77-.51-.08-.26-.08-.51-.08-1.37v-2.65h.94c.51,0,.6,0,.68.09.09.09.09.17.09.6,0,0,0,.09.09.09h.34s.08,0,.08-.09c.09-.51.17-.94.26-1.37v-.09h-.43c-.09.17-.17.17-.43.17-.43,0-1.71.09-2.65.09h-1.8c-.17,0-.26,0-.26-.26,0,0,0-.09-.09-.09h-.34s-.09,0-.09.09c0,.34-.08.86-.17,1.37v.09h.43v-.09c.34-.43.43-.51.77-.51ZM49.02,10.1c.09.17.17.34.17.68,0,.43.08,1.45.08,2.31s0,1.28-.17,1.45c-.09.09-.26.17-.68.17v.43s.6-.09,1.2-.09,1.2,0,1.63.09v-.34s0-.09-.09-.09c-.43-.09-.6-.17-.68-.34-.09-.17-.17-.34-.17-1.54v-1.45c0-1.03.08-1.2.17-1.28q.17-.17.77-.26v-.34s0-.09-.09-.09h-1.37c-.6,0-1.11,0-1.54-.09v.34s0,.09.09.09c.34.09.6.17.68.34ZM62.46,9.41h-2.48v.34s0,.09.08.09c.51.09.68.17.77.34.09.17.09.34.09,1.54v1.54c-.17-.26-.51-.6-.86-.94l-.34-.34c-1.37-1.45-2.05-2.31-2.23-2.57h-2.22s-.09,0-.09.09v.34s0,.09.09.09c.51,0,.77.17,1.11.43v2.82c0,1.03,0,1.2-.08,1.37-.09.17-.26.26-.86.34,0,0-.09,0-.09.09v.34c.43,0,.86-.09,1.37-.09.6,0,.94,0,1.28.09v-.34s0-.09-.09-.09c-.6-.09-.85-.17-.94-.34-.08-.17-.08-.26-.08-1.54v-1.97c.26.34,1.2,1.37,1.88,2.05l.17.17c1.03,1.11,1.71,1.88,1.97,2.22l.26-.17v-.09s.09-3.17.09-3.34c0-1.03,0-1.37.09-1.54.09-.17.34-.34.86-.34,0,0,.09,0,.09-.09l.17-.51q.08,0,0,0ZM8.04,19.76c-.6.09-1.2.09-1.45.09h-.34s-.51,1.03-1.03,2.14c-.26.51-.51,1.03-.68,1.45-.09.26-.26.51-.26.6-.09-.26-.26-.6-.51-1.03-.17-.26-.26-.51-.43-.86-.26-.51-.43-.86-.6-1.11-.34-.6-.43-.86-.51-1.11h-.51c-.43,0-1.37-.09-1.37-.09v.34s0,.09.09.09c.34.09.6.09.68.17.09.09.17.17.34.51v2.4c0,1.2,0,1.37-.09,1.54-.09.17-.17.26-.77.34v.43h.09c.34-.09.51-.09.94-.09.51,0,1.2.09,1.37.09v-.34s0-.09-.09-.09c-.6-.09-.68-.17-.77-.34-.09-.17-.09-.34-.09-.43v-2.31c.17.26.43.86.86,1.63.51,1.03.86,1.71,1.03,1.97h.51c.17-.51.34-.86.94-2.14l.43-.86c.17-.43.34-.68.43-.86v1.54c0,.94,0,1.28-.09,1.45s-.17.34-.68.34c0,0-.09,0-.09.09v.34c.43-.09.86-.09,1.28-.09.34,0,1.45.09,1.45.09v-.34s0-.09-.09-.09c-.51-.09-.68-.17-.77-.43-.09-.26-.09-.51-.09-1.45v-1.45c0-.86,0-1.11.09-1.2.09-.17.26-.26.77-.34,0,0,.09,0,.09-.09l-.09-.51q.09.09,0,0ZM14.46,19.85c-1.71,0-3.08,1.28-3.08,2.91s1.28,2.82,3.08,2.82,3.08-1.28,3.08-2.99c0-1.54-1.28-2.74-3.08-2.74ZM14.54,25.24c-1.03,0-1.88-1.11-1.88-2.65,0-1.37.68-2.31,1.8-2.31,1.03,0,1.8,1.11,1.8,2.57,0,1.37-.77,2.4-1.71,2.4ZM26.09,24.81c-.43-.43-.68-.86-1.2-1.71l-.26-.43c.69-.17,1.11-.6,1.11-1.2,0-1.03-.85-1.63-2.31-1.63h-.85c-.94,0-1.54-.09-1.63-.09v.34s0,.09.09.09c.34.09.51.09.68.17.26.26.26.6.26,2.91,0,1.03,0,1.37-.09,1.54-.08.17-.26.17-.77.26,0,0-.08,0-.08.09v.34c.43-.09.94-.09,1.45-.09s1.11,0,1.37.09h.17s.09,0,.09-.09v-.34s0-.09-.09-.09c-.77-.09-.85-.26-.94-.6,0-.26-.08-.68-.08-1.37v-.17h.17c.34,0,.43.17.6.51,0,.09.08.09.08.17s.09.09.09.17c.26.43.77,1.28,1.2,1.54.26.17.69.26,1.28.26h.6s.08,0,.08-.09v-.17s0-.09-.08-.09c-.34.09-.6-.09-.94-.34ZM24.55,21.47c0,.68-.43,1.11-1.2,1.11h-.34v-2.31h.26c.77,0,1.28.51,1.28,1.2ZM35.25,24.13h-.34q0,.09-.09.17c-.08.26-.17.43-.43.6-.26.09-.51.17-.94.17-.51,0-.77-.09-.94-.26-.17-.17-.17-.26-.17-1.11v-.86h.51c.68,0,.86.09.94.26.08.17.17.17.17.51l.26-.17v-.09c-.08-.34-.08-.51-.08-.94v-.68h-.43c-.09.26-.17.43-.26.43-.08.09-.43.09-.94.09h-.34v-1.97h.94c.94,0,1.11.17,1.28.86h.34v-1.28h-2.14c-1.46,0-1.8,0-2.14-.09h-.17v.34s0,.09.08.09c.34.09.51.09.68.26.17.17.17.34.17.68v3.08c0,.43-.09.6-.09.68-.08.17-.26.17-.6.26v.43h.09c.17,0,.6-.09,1.11-.09h3.34s.08,0,.08-.09c0-.17,0-.26.09-.6v-.68q.09.09,0,0ZM44.83,19.85h-.43c-.08.17-.17.17-.43.17-.51,0-1.8.09-2.65.09h-1.8c-.17,0-.26,0-.26-.26,0,0,0-.09-.08-.09h-.34s-.08,0-.08.09c0,.34-.09.86-.17,1.37v.09h.43v-.09c.17-.43.26-.51.6-.6h1.54v2.99c0,.43,0,1.03-.17,1.2-.08.17-.26.17-.51.26h-.17v.43c.34,0,.94-.09,1.37-.09s.94,0,1.45.09v-.34s0-.09-.08-.09c-.51-.09-.69-.17-.77-.51-.09-.26-.09-.51-.09-1.37v-2.65h.94c.51,0,.6,0,.68.09.08.09.08.17.08.6,0,0,0,.09.09.09h.34s.08,0,.08-.09c.26-.43.34-.86.43-1.37ZM54.67,19.85c-.34,0-.68.09-1.28.09h-1.11v.34s0,.09.08.09c.68.09.77.17.86.51.08.26.08,1.28.08,2.05,0,.94-.08,1.28-.34,1.63-.26.34-.77.6-1.37.6-.51,0-.85-.17-1.2-.43-.34-.34-.43-.6-.43-2.14v-1.28c0-.77.17-.86,1.03-.94,0,0,.09,0,.09-.09v-.34c-.51.09-.86.09-1.37.09-.69,0-1.37,0-1.71-.09h-.09v.43c.51.09.69.17.77.43.09.26.09.51.09,2.48v.17c0,.68,0,1.11.51,1.63.43.51,1.11.68,2.05.68.86,0,1.46-.26,1.88-.77.34-.34.51-.77.51-1.37,0-.34.09-2.31.09-2.4,0-.68.09-.77.94-.94v-.09l-.09-.34ZM60.74,22.5c-.17-.09-.34-.17-.6-.26l-.17-.09c-.43-.17-.86-.34-.86-.94,0-.51.43-.94,1.03-.94s.94.34,1.11,1.03h.43v-1.28c-.51-.26-1.03-.34-1.46-.34-1.2,0-2.05.68-2.05,1.63,0,.6.34,1.03.94,1.37.17.09.43.17.6.26.43.17.77.34,1.03.51.17.17.17.34.17.51,0,.51-.51.94-1.11.94-.34,0-.68-.17-.94-.34-.26-.26-.34-.43-.43-.94,0,0,0-.09-.09-.09h-.43s-.09,0-.09.09v1.37c.6.34,1.2.43,1.8.43,1.28,0,2.22-.77,2.22-1.71,0-.51-.43-.86-1.11-1.2Z" style="fill: #333332;"/>
  <path d="M16.6,44.83l-.43-.34-.09.09.09.09v.09l-.43.51c0,.09-.09.09-.09.09h-.09l-.09.09.77.6.26-.26-.08-.09q-.09.09-.17.09t-.17-.09c-.09,0-.09-.09-.09-.09l.09-.09.34-.51.08-.09h.09v-.09q.08,0,0,0ZM17.62,46.46v-.17l.08-.94h-.08l-.68.6c-.08.09-.17.09-.17.09v.09l.34.17v-.09h-.08l.08-.09.26.17v.17h-.09v.09l.51.26-.17-.34q.08.09,0,0ZM17.28,46.03l-.17-.09.17-.17v.26ZM18.82,45.86l-.43-.17v.09q.08,0,.08.09v.09l-.17.6q0,.09-.09.09h-.08v.09l.51.17c.09,0,.17.09.26.09h.08c.09,0,.17-.09.17-.17v-.26c0-.09-.09-.09-.17-.17h.17c.08,0,.08-.09.08-.17v-.26c-.17,0-.26,0-.43-.09ZM18.74,46.71c0,.09-.09.09-.09.17h-.17v-.09l.09-.26q.08,0,.08.09v.09c.09-.17.09-.09.09,0ZM18.82,46.2c0,.09-.08.09-.08.09h-.09l.09-.34h.08v.09c.09.09,0,.09,0,.17ZM20.28,46.2h-.34c-.09,0-.17.09-.26.17-.09.09-.09.17-.17.26v.26c0,.09.08.17.17.26.08.09.17.09.34.17h.17c.09,0,.26,0,.34-.09.09-.09.17-.26.26-.34,0-.17,0-.34-.08-.43-.09-.09-.26-.17-.43-.26ZM20.45,46.8c0,.17-.09.26-.09.34q-.08.09-.17.09c-.08,0-.17-.09-.17-.17v-.34c0-.17.09-.26.09-.34s.08-.09.17-.09h.08c.09,0,.17.09.17.17-.08.09-.08.26-.08.34ZM22.24,47.4s-.09-.09-.09-.17c-.09-.09-.09-.17-.17-.26.17-.09.17-.17.17-.26v-.17c0-.09-.09-.09-.09-.09-.09,0-.09-.09-.17-.09h-.77v.09h.09v.77h-.09v.09h.6v-.09h-.08v-.34h.08s.09.09.09.17c.08.17.17.26.17.26h.34v-.09q0,.17-.08.17.08,0,0,0ZM21.82,46.8q0,.09,0,0c-.09.09-.17.09-.26.09v-.34c.09,0,.17,0,.17.09v.17h.09ZM23.7,47.06h-.09q0,.09-.08.17l-.09.09h-.26v-.34h.17v.09h.08v-.34h-.08v.09h-.17v-.34h.26l.09.09s0,.09.08.09h.09v-.26l-.94.09v.09h.08v.77h-.08v.09l.94.09v-.43ZM29.94,46.03h-.09v.17s0,.09-.09.09c0,0-.08,0-.17.09h-.09v-.34h.17v.09h.08l-.08-.34h-.09v.09h-.17l-.08-.34h.34l.08.09h.09l-.09-.26-.94.09v.09h.09v.09l.08.6v.09h-.08v.09l.94-.17.09-.17ZM30.37,45.26q-.08,0,0,0v.34h.09v-.09s0-.09.08-.09h.17v.86h-.09v.09h.6v-.09h-.09v-.86h.26s.09.09.09.17h.08v-.34h-1.2ZM33.62,45.6c-.17,0-.26-.09-.34-.09-.17,0-.34,0-.43.09-.08.09-.17.26-.26.34,0,.17,0,.26.08.43.09.17.17.26.34.26s.26,0,.34-.09v.09h.08l.09-.43h-.09c0,.09-.08.17-.17.26-.09,0-.17.09-.17,0q-.08,0-.17-.09s-.09-.09-.09-.17v-.26c0-.17.09-.26.09-.34q.09-.09.17-.09c.09,0,.17.09.17.09.09.09.09.17.09.26h.08l.09-.43q.17.17.08.17ZM34.74,45.77h-.34c-.09,0-.17.09-.26.17-.09.09-.09.17-.17.26v.26c0,.09.08.17.17.26.08.09.17.09.34.17h.17c.09,0,.26,0,.34-.09.17-.09.26-.17.26-.34s0-.34-.09-.43c-.08-.09-.17-.17-.43-.26ZM34.91,46.46c0,.17-.09.26-.17.34q-.09.09-.17.09c-.09,0-.17-.09-.17-.17v-.34c0-.17.09-.26.09-.34,0,0,.09-.09.17-.09h.09c.08,0,.17.09.17.17v.34ZM36.53,46.2v.09s.09,0,.09.09v.09l-.09.34-.43-.68-.34-.09v.09c.09,0,.09.09.09.17l-.09.51v.09h-.17v.09l.43.09v-.09s-.09,0-.09-.09v-.17l.09-.43.51.86h.09l.17-.86v-.09h.17v-.09l-.43.09ZM37.9,46.88s-.08-.09-.17-.09c-.08-.09-.17-.09-.17-.09l-.09-.09v-.17h.09q.09,0,.09.09c0,.09.08.09.08.17h.09v-.34h-.09s-.08,0-.08-.09l-.09-.09c-.09,0-.17,0-.26.09-.08.09-.08.17-.17.26v.17c0,.09.09.09.09.17,0,0,.08.09.26.17l.09.09v.17h-.09q-.08,0-.17-.09-.08-.09-.08-.26h-.09v.34h.09v-.09l.08.09c.09,0,.09.09.17.09h.09c.09,0,.17,0,.26-.09.08-.09.08-.17.17-.26v-.17c0,.09,0,0-.09,0ZM38.41,46.37v.34h.08v-.09s0-.09.09-.09h.17v.86h-.09v.09h.6v-.09h-.08v-.86h.26s.09.09.09.17h.08v-.34h-1.2ZM40.9,47.31q-.09,0,0,0c-.09,0-.09-.09-.17-.17l-.43-.77h-.09l-.26.86c0,.09-.09.17-.17.17v.09h.34v-.09h-.09v-.09h.34v.09h-.08v.09h.51l.09-.17ZM40.13,47.06l.08-.26.09.26h-.17ZM42.09,46.29l.09-.09v-.09l-.34.09v.09c.08,0,.17,0,.17.09l.08.34-.68-.51-.34.09v.09s.08,0,.08.09l.09.51v.17h-.09v.09l.43-.09v-.09h-.08s-.09,0-.09-.09l-.09-.43.77.6h.09l-.17-.86h.08ZM43.63,46.63h-.08l-.09-.09-.26-.68h.26l.09.09h.08l-.08-.26-1.03.34.09.26h.08v-.17s.09,0,.09-.09h.08l.26.68v.09l-.08.09v.09l.6-.17v-.17ZM44.83,46.11h-.17l-.09-.09-.26-.6v-.09l.08-.09v-.09l-.51.26v.09h.09l.09.09.26.6v.09l-.09.09v.09l.51-.26q.09,0,.09-.09ZM46.03,45.26h-.09s-.09,0-.17-.09l-.77-.43-.08.09.26.86v.26l.09.09.26-.17-.09-.09h-.09v-.09l.26-.17.09.09-.09.09.09.09.43-.34q0-.09-.09-.17ZM45.26,45.52l-.09-.26.26.17-.17.09Z" style="fill: #333332;"/>
  <path d="M47.83,43.55c-.34-1.71-1.71-3.85-1.8-3.94,0,0-1.2-1.45-3.42-.43-.09,0-1.71.77-1.97,2.05v.17l.94,2.22c0,.09.09.09.17.17.09,0,.17,0,.17-.09,0,0,.77-.86,1.97-1.03.34-.09.68-.09,1.03,0-1.63,1.63-5.39,2.74-9.67,1.8l-1.03-2.22.17-.09c.09,0,.09-.09.09-.09v-.17l-1.8-4.02c.17-.34.34-.77.34-1.2,0-1.28-1.03-2.4-2.4-2.4-1.28,0-2.4,1.03-2.4,2.4,0,.43.09.86.34,1.2l-1.8,4.02v.17c0,.09.09.09.09.09l.17.09-1.03,2.31c-4.19.86-7.79-.26-9.33-1.88h1.03c1.2.26,1.97,1.03,1.97,1.03q.08.09.17.09c.09,0,.17-.09.17-.17l.94-2.22v-.17c-.26-1.28-1.88-2.05-1.97-2.05-2.22-1.03-3.42.43-3.42.43-.09.09-1.45,2.22-1.8,3.94-.43,1.97.94,3.68,3.51,4.71,1.54.6,2.99.77,4.36.77.77,0,1.54-.09,2.31-.17l-1.8,4.11c0,.09-.86,1.71-.86,4.02,0,.09.09.17.17.17h.09q.09,0,.17-.09c1.54-1.54,2.22-3.34,2.22-3.34l2.4-5.39,1.03-.26c.26-.09.51-.09.68-.17.94-.17,1.8-.34,2.57-.43.77,0,1.63.17,2.57.43.26.09.51.09.68.17.26.09.43.09.68.17l2.39,5.48c0,.09.69,1.88,2.23,3.34,0,0,.08.09.17.09h.08c.09,0,.17-.09.17-.17.09-2.31-.85-3.94-.85-4.02l-1.88-4.19c.86.17,1.71.26,2.65.26,1.45,0,2.91-.26,4.36-.77,3.08-1.03,4.36-2.74,3.94-4.71ZM43.98,42.18c-.94.17-1.63.68-1.97.94l-.77-1.88c.26-1.03,1.71-1.71,1.71-1.71,1.8-.77,2.65.09,2.82.26.43.94.09,1.71-.26,2.31-.6,0-1.11,0-1.54.09ZM34.82,44.23c-.17-.09-.34-.09-.51-.17-.26-.09-.51-.17-.77-.17l-.51-1.2.94-.34.85,1.88ZM34.05,41.75l-1.62.77v-.09l-1.37-3.17.08-.26c.51-.09,1.03-.34,1.37-.68l1.54,3.42ZM32.94,43.8c-.34-.09-.77-.09-1.11-.17h-.94c-.77,0-1.46.09-2.22.26l.43-.94h.17c.09,0,.17-.09.17-.17l1.37-3.08,1.37,3.08c0,.09.09.17.17.17h.17l.43.86ZM30.8,34.65c1.03,0,1.88.86,1.88,1.88,0,.26,0,.43-.08.6,0,.09-.09.17-.09.26-.08.09-.08.17-.17.26-.26.34-.51.51-.94.68-.09,0-.17.09-.26.09h-.68c-.09,0-.17,0-.26-.09-.34-.09-.68-.34-.94-.68-.08-.09-.08-.17-.17-.26-.09-.09-.09-.17-.09-.26-.08-.17-.08-.43-.08-.6,0-1.03.86-1.88,1.88-1.88ZM27.55,41.75l1.54-3.51c.34.34.86.6,1.37.68h.26l-.09.26-1.37,3.17v.09l-1.71-.68ZM16.26,39.87c.17-.17,1.03-1.03,2.82-.26,0,0,1.45.68,1.71,1.71l-.77,1.88c-.34-.34-1.03-.77-1.97-.94-.51-.09-.94-.09-1.45,0-.43-.68-.77-1.45-.34-2.4ZM17.71,47.83c-2.4-.94-3.51-2.48-3.17-4.19.17-.86.68-1.88,1.03-2.65,0,.17,0,.34.09.51.09.26.17.6.43.86,0,.09.09.09.17.17.08.09.08.17.17.17l.08.09c1.54,1.8,5.31,2.99,9.58,2.22l-1.54,3.42c-2.14.34-4.45.34-6.85-.6ZM26.35,48l-.09.26v.09l-.09.17v.09l-2.22,5.13s-.51,1.45-1.71,2.82c.08-1.88.77-3.17.77-3.25l1.97-4.45.09-.26.08-.26,1.54-3.42.09-.26.09-.26.85-2.05.94.43-.51,1.28-.09.26v.09l-.08.26-1.63,3.34ZM38.76,53.3s.68,1.28.77,3.17c-1.2-1.37-1.71-2.74-1.71-2.82l-2.31-5.13,1.28.26,1.97,4.53ZM44.23,47.83c-2.48.94-4.88.86-7.1.51-.08,0-.17,0-.26-.09-.09,0-.17,0-.26-.09h-.17c-.09,0-.17,0-.26-.09-.26-.09-.51-.09-.77-.17-.09,0-.17,0-.26-.09-.08,0-.17-.09-.26-.09s-.26-.09-.34-.09c-.26-.09-.51-.09-.77-.17-.94-.26-1.8-.43-2.57-.43h-.09c-.77,0-1.62.17-2.65.43-.17,0-.26.09-.43.09-.34.09-.68.17-.94.17l1.54-3.51c.86-.26,1.63-.34,2.57-.34h.08c.68,0,1.37.09,2.14.26.09,0,.17,0,.26.09.09,0,.17.09.26.09s.26.09.34.09c.26.09.6.17.86.26.09,0,.17,0,.26.09.09,0,.17,0,.26.09,4.45.86,8.38-.34,9.92-2.14l.09-.09c.09-.09.09-.17.17-.17l.17-.17c.17-.26.34-.6.43-.86,0-.17.09-.34.09-.51.43.77.86,1.8,1.03,2.65.17,1.8-1.03,3.34-3.34,4.28Z" style="fill: #333332;"/>
</svg>